# xmcd
#
# Track frame offsets:
#	150
#	12808
#	32231
#	47680
#	62921
#	78489
#	92495
#	94791
#	110146
#	123512
#	134960
#	151001
#	165807
#	182519
#	196794
#
# Disc length: 2853 seconds
#
# Revision: 0
# Processed by: cddbd v1.4PL0 Copyright (c) Steve Scherf et al.
# Submitted via: dBpowerAMP V4.0
#
DISCID=bc0b230f
DTITLE=Leland Martin - Simply Traditional
DYEAR=1900
DGENRE=Country
TTITLE0=Stone Cold Fingers
TTITLE1=Simply Traditional
TTITLE2=Hey Love No Fair
TTITLE3=Freddie's Heart
TTITLE4=Hand-Me-Downs
TTITLE5=Luckiest Man In The World
TTITLE6=Intro - Don't Ya Think
TTITLE7=Don't Ya Think
TTITLE8=If I Had Long Legs (Like Alan Jackson)
TTITLE9=Love Ain't Love
TTITLE10=More Than Friends
TTITLE11=There Ain't No Speed Limit
TTITLE12=What A Friend We Have In Jesus
TTITLE13=Christmas Whishin'
TTITLE14=Flags On The Christmas Tree
EXTD=
EXTT0=
EXTT1=
EXTT2=
EXTT3=
EXTT4=
EXTT5=
EXTT6=
EXTT7=
EXTT8=
EXTT9=
EXTT10=
EXTT11=
EXTT12=
EXTT13=
EXTT14=
PLAYORDER=
